<svg width="90" height="90" viewBox="0 0 90 90" fill="none" xmlns="http://www.w3.org/2000/svg">
<circle cx="45" cy="45" r="45" fill="white"/>
<path d="M76.8251 30.271V55.694C76.8251 65.7844 68.4047 73.9651 58.0187 73.9651H56.1165L46.4026 83.3963C46.0222 83.7659 45.4959 84 44.9126 84C44.3736 84 43.8854 83.809 43.5113 83.4887L43.3464 83.3285L43.3401 83.3224L33.7086 73.9651H31.8001C21.4204 73.9651 13 65.7844 13 55.694V30.271C13 20.1807 21.4204 12 31.8064 12H58.0187C68.4047 12 76.8251 20.1807 76.8251 30.271Z" fill="#FFD666"/>
<path d="M27.2306 47.219C25.3791 47.219 24.3238 49.2687 25.3981 50.7487C29.575 56.5139 36.4818 60.2728 44.2859 60.2728C52.09 60.2728 58.9904 56.5077 63.1674 50.7487C64.2416 49.2687 63.1863 47.219 61.3348 47.219H27.2306Z" fill="white"/>
<path d="M38.0742 38.4937H26.902V33.0196C26.902 29.9976 29.4044 27.5454 32.4881 27.5454C35.5719 27.5454 38.0742 29.9976 38.0742 33.0196V38.4937Z" fill="white"/>
<path d="M61.6693 38.4937H50.4971V33.0196C50.4971 29.9976 52.9994 27.5454 56.0832 27.5454C59.1669 27.5454 61.6693 29.9976 61.6693 33.0196V38.4937Z" fill="white"/>
</svg>
